HIERARCHY
ROOT Hips
{
  OFFSET 0.000000 0.000000 0.000000
  CHANNELS 6 Xposition Yposition Zposition Zrotation Yrotation Xrotation
  JOINT Spine1
  {
    OFFSET -0.013727 5.003763 -0.053727
    CHANNELS 3 Zrotation Yrotation Xrotation
    JOINT Spine2
    {
      OFFSET -0.000000 7.125301 -0.029825
      CHANNELS 3 Zrotation Yrotation Xrotation
      JOINT Chest
      {
        OFFSET -0.000001 7.550063 -0.815971
        CHANNELS 3 Zrotation Yrotation Xrotation
        JOINT Neck1
        {
          OFFSET -0.181677 26.311295 -0.553348
          CHANNELS 3 Zrotation Yrotation Xrotation
          JOINT Neck2
          {
            OFFSET -0.000003 7.709397 2.302585
            CHANNELS 3 Zrotation Yrotation Xrotation
            JOINT Head
            {
              OFFSET -0.000005 6.128916 1.953709
              CHANNELS 3 Zrotation Yrotation Xrotation
              JOINT HeadEnd
              {
                OFFSET 0.003598 16.065403 -1.835379
                CHANNELS 3 Zrotation Yrotation Xrotation
                End Site
                {
                  OFFSET 0.0 1.0 0.0
                }
              }
              JOINT Jaw
              {
                OFFSET 0.002637 0.475592 3.094941
                CHANNELS 3 Zrotation Yrotation Xrotation
                End Site
                {
                  OFFSET 0.0 1.0 0.0
                }
              }
              JOINT LeftEye
              {
                OFFSET 3.206381 5.380205 7.586883
                CHANNELS 3 Zrotation Yrotation Xrotation
                End Site
                {
                  OFFSET 0.0 1.0 0.0
                }
              }
              JOINT RightEye
              {
                OFFSET -3.222440 5.361869 7.558234
                CHANNELS 3 Zrotation Yrotation Xrotation
                End Site
                {
                  OFFSET 0.0 1.0 0.0
                }
              }
            }
          }
        }
        JOINT LeftShoulder
        {
          OFFSET 1.621652 23.237164 5.113413
          CHANNELS 3 Zrotation Yrotation Xrotation
          JOINT LeftArm
          {
            OFFSET 14.919846 0.000002 -5.502326
            CHANNELS 3 Zrotation Yrotation Xrotation
            JOINT LeftForeArm
            {
              OFFSET 28.739307 0.000000 -0.002588
              CHANNELS 3 Zrotation Yrotation Xrotation
              JOINT LeftHand
              {
                OFFSET 27.093981 -0.000001 0.002609
                CHANNELS 3 Zrotation Yrotation Xrotation
                JOINT LeftHandThumb1
                {
                  OFFSET 2.276482 -1.392045 3.191413
                  CHANNELS 3 Zrotation Yrotation Xrotation
                  JOINT LeftHandThumb2
                  {
                    OFFSET 4.012836 -1.828127 1.641654
                    CHANNELS 3 Zrotation Yrotation Xrotation
                    JOINT LeftHandThumb3
                    {
                      OFFSET 2.798515 0.000000 -0.000003
                      CHANNELS 3 Zrotation Yrotation Xrotation
                      JOINT LeftHandThumbEnd
                      {
                        OFFSET 3.180793 -0.000004 0.000004
                        CHANNELS 3 Zrotation Yrotation Xrotation
                        End Site
                        {
                          OFFSET 0.0 1.0 0.0
                        }
                      }
                    }
                  }
                }
                JOINT LeftHandIndex1
                {
                  OFFSET 3.247555 -0.531998 2.296169
                  CHANNELS 3 Zrotation Yrotation Xrotation
                  JOINT LeftHandIndex2
                  {
                    OFFSET 6.364578 0.012060 0.178600
                    CHANNELS 3 Zrotation Yrotation Xrotation
                    JOINT LeftHandIndex3
                    {
                      OFFSET 3.662364 0.000000 0.000000
                      CHANNELS 3 Zrotation Yrotation Xrotation
                      JOINT LeftHandIndex4
                      {
                        OFFSET 2.329242 0.000004 0.000004
                        CHANNELS 3 Zrotation Yrotation Xrotation
                        JOINT LeftHandIndexEnd
                        {
                          OFFSET 2.759615 -0.180537 -0.113024
                          CHANNELS 3 Zrotation Yrotation Xrotation
                          End Site
                          {
                            OFFSET 0.0 1.0 0.0
                          }
                        }
                      }
                    }
                  }
                }
                JOINT LeftHandMiddle1
                {
                  OFFSET 3.163495 0.240981 1.000332
                  CHANNELS 3 Zrotation Yrotation Xrotation
                  JOINT LeftHandMiddle2
                  {
                    OFFSET 6.190780 -0.259278 -1.002548
                    CHANNELS 3 Zrotation Yrotation Xrotation
                    JOINT LeftHandMiddle3
                    {
                      OFFSET 4.356520 -0.000004 -0.000001
                      CHANNELS 3 Zrotation Yrotation Xrotation
                      JOINT LeftHandMiddle4
                      {
                        OFFSET 2.996877 -0.000008 0.000000
                        CHANNELS 3 Zrotation Yrotation Xrotation
                        JOINT LeftHandMiddleEnd
                        {
                          OFFSET 2.304287 -0.294569 -0.031741
                          CHANNELS 3 Zrotation Yrotation Xrotation
                          End Site
                          {
                            OFFSET 0.0 1.0 0.0
                          }
                        }
                      }
                    }
                  }
                }
                JOINT LeftHandRing1
                {
                  OFFSET 2.882643 -0.053652 -0.322543
                  CHANNELS 3 Zrotation Yrotation Xrotation
                  JOINT LeftHandRing2
                  {
                    OFFSET 5.854541 -0.486202 -1.373841
                    CHANNELS 3 Zrotation Yrotation Xrotation
                    JOINT LeftHandRing3
                    {
                      OFFSET 4.350578 0.000000 0.000003
                      CHANNELS 3 Zrotation Yrotation Xrotation
                      JOINT LeftHandRing4
                      {
                        OFFSET 2.651321 0.000007 0.000002
                        CHANNELS 3 Zrotation Yrotation Xrotation
                        JOINT LeftHandRingEnd
                        {
                          OFFSET 1.936105 0.077687 -0.000071
                          CHANNELS 3 Zrotation Yrotation Xrotation
                          End Site
                          {
                            OFFSET 0.0 1.0 0.0
                          }
                        }
                      }
                    }
                  }
                }
                JOINT LeftHandPinky1
                {
                  OFFSET 2.865500 -0.310005 -1.600378
                  CHANNELS 3 Zrotation Yrotation Xrotation
                  JOINT LeftHandPinky2
                  {
                    OFFSET 5.087849 -1.331141 -1.771230
                    CHANNELS 3 Zrotation Yrotation Xrotation
                    JOINT LeftHandPinky3
                    {
                      OFFSET 3.070974 0.000004 0.000000
                      CHANNELS 3 Zrotation Yrotation Xrotation
                      JOINT LeftHandPinky4
                      {
                        OFFSET 1.549672 0.000000 0.000001
                        CHANNELS 3 Zrotation Yrotation Xrotation
                        JOINT LeftHandPinkyEnd
                        {
                          OFFSET 1.944893 -0.157802 0.057219
                          CHANNELS 3 Zrotation Yrotation Xrotation
                          End Site
                          {
                            OFFSET 0.0 1.0 0.0
                          }
                        }
                      }
                    }
                  }
                }
              }
            }
          }
        }
        JOINT RightShoulder
        {
          OFFSET -1.380118 23.180309 5.214158
          CHANNELS 3 Zrotation Yrotation Xrotation
          JOINT RightArm
          {
            OFFSET -15.037196 0.000012 -5.545604
            CHANNELS 3 Zrotation Yrotation Xrotation
            JOINT RightForeArm
            {
              OFFSET -28.736639 0.000002 -0.002597
              CHANNELS 3 Zrotation Yrotation Xrotation
              JOINT RightHand
              {
                OFFSET -27.133619 -0.000000 0.002613
                CHANNELS 3 Zrotation Yrotation Xrotation
                JOINT RightHandThumb1
                {
                  OFFSET -2.274032 -1.383988 3.163127
                  CHANNELS 3 Zrotation Yrotation Xrotation
                  JOINT RightHandThumb2
                  {
                    OFFSET -4.011429 -1.827466 1.640914
                    CHANNELS 3 Zrotation Yrotation Xrotation
                    JOINT RightHandThumb3
                    {
                      OFFSET -2.794935 -0.000004 -0.000003
                      CHANNELS 3 Zrotation Yrotation Xrotation
                      JOINT RightHandThumbEnd
                      {
                        OFFSET -3.183852 0.000004 0.000001
                        CHANNELS 3 Zrotation Yrotation Xrotation
                        End Site
                        {
                          OFFSET 0.0 1.0 0.0
                        }
                      }
                    }
                  }
                }
                JOINT RightHandIndex1
                {
                  OFFSET -3.253266 -0.520057 2.282866
                  CHANNELS 3 Zrotation Yrotation Xrotation
                  JOINT RightHandIndex2
                  {
                    OFFSET -6.341917 0.012471 0.178266
                    CHANNELS 3 Zrotation Yrotation Xrotation
                    JOINT RightHandIndex3
                    {
                      OFFSET -3.654871 -0.000008 -0.000000
                      CHANNELS 3 Zrotation Yrotation Xrotation
                      JOINT RightHandIndex4
                      {
                        OFFSET -2.327586 0.000000 0.000001
                        CHANNELS 3 Zrotation Yrotation Xrotation
                        JOINT RightHandIndexEnd
                        {
                          OFFSET -2.761790 -0.180656 -0.113078
                          CHANNELS 3 Zrotation Yrotation Xrotation
                          End Site
                          {
                            OFFSET 0.0 1.0 0.0
                          }
                        }
                      }
                    }
                  }
                }
                JOINT RightHandMiddle1
                {
                  OFFSET -3.168106 0.246593 1.001030
                  CHANNELS 3 Zrotation Yrotation Xrotation
                  JOINT RightHandMiddle2
                  {
                    OFFSET -6.180828 -0.258836 -1.000895
                    CHANNELS 3 Zrotation Yrotation Xrotation
                    JOINT RightHandMiddle3
                    {
                      OFFSET -4.348901 0.000000 -0.000000
                      CHANNELS 3 Zrotation Yrotation Xrotation
                      JOINT RightHandMiddle4
                      {
                        OFFSET -3.000240 -0.000004 -0.000002
                        CHANNELS 3 Zrotation Yrotation Xrotation
                        JOINT RightHandMiddleEnd
                        {
                          OFFSET -2.302520 -0.294370 -0.031706
                          CHANNELS 3 Zrotation Yrotation Xrotation
                          End Site
                          {
                            OFFSET 0.0 1.0 0.0
                          }
                        }
                      }
                    }
                  }
                }
                JOINT RightHandRing1
                {
                  OFFSET -2.885690 -0.067952 -0.308858
                  CHANNELS 3 Zrotation Yrotation Xrotation
                  JOINT RightHandRing2
                  {
                    OFFSET -5.854198 -0.486130 -1.373731
                    CHANNELS 3 Zrotation Yrotation Xrotation
                    JOINT RightHandRing3
                    {
                      OFFSET -4.338810 -0.000004 -0.000000
                      CHANNELS 3 Zrotation Yrotation Xrotation
                      JOINT RightHandRing4
                      {
                        OFFSET -2.654903 -0.000004 0.000004
                        CHANNELS 3 Zrotation Yrotation Xrotation
                        JOINT RightHandRingEnd
                        {
                          OFFSET -1.933568 0.077527 -0.000052
                          CHANNELS 3 Zrotation Yrotation Xrotation
                          End Site
                          {
                            OFFSET 0.0 1.0 0.0
                          }
                        }
                      }
                    }
                  }
                }
                JOINT RightHandPinky1
                {
                  OFFSET -2.866425 -0.342796 -1.584145
                  CHANNELS 3 Zrotation Yrotation Xrotation
                  JOINT RightHandPinky2
                  {
                    OFFSET -5.091371 -1.332055 -1.772385
                    CHANNELS 3 Zrotation Yrotation Xrotation
                    JOINT RightHandPinky3
                    {
                      OFFSET -3.062664 -0.000004 0.000001
                      CHANNELS 3 Zrotation Yrotation Xrotation
                      JOINT RightHandPinky4
                      {
                        OFFSET -1.546529 0.000004 -0.000002
                        CHANNELS 3 Zrotation Yrotation Xrotation
                        JOINT RightHandPinkyEnd
                        {
                          OFFSET -1.945119 -0.157718 0.057211
                          CHANNELS 3 Zrotation Yrotation Xrotation
                          End Site
                          {
                            OFFSET 0.0 1.0 0.0
                          }
                        }
                      }
                    }
                  }
                }
              }
            }
          }
        }
      }
    }
  }
  JOINT LeftLeg
  {
    OFFSET 10.043214 -8.434526 2.595655
    CHANNELS 3 Zrotation Yrotation Xrotation
    JOINT LeftShin
    {
      OFFSET -0.000001 -43.221752 -0.802913
      CHANNELS 3 Zrotation Yrotation Xrotation
      JOINT LeftFoot
      {
        OFFSET 0.000001 -42.155094 -3.481523
        CHANNELS 3 Zrotation Yrotation Xrotation
        JOINT LeftToeBase
        {
          OFFSET 0.000000 -5.059472 13.231529
          CHANNELS 3 Zrotation Yrotation Xrotation
          JOINT LeftToeEnd
          {
            OFFSET -0.009607 -1.647619 6.513017
            CHANNELS 3 Zrotation Yrotation Xrotation
            End Site
            {
              OFFSET 0.0 1.0 0.0
            }
          }
        }
      }
    }
  }
  JOINT RightLeg
  {
    OFFSET -10.047278 -8.295260 2.620317
    CHANNELS 3 Zrotation Yrotation Xrotation
    JOINT RightShin
    {
      OFFSET 0.000001 -43.362206 -0.805556
      CHANNELS 3 Zrotation Yrotation Xrotation
      JOINT RightFoot
      {
        OFFSET 0.000002 -42.117393 -3.478398
        CHANNELS 3 Zrotation Yrotation Xrotation
        JOINT RightToeBase
        {
          OFFSET -0.000000 -5.079609 13.284196
          CHANNELS 3 Zrotation Yrotation Xrotation
          JOINT RightToeEnd
          {
            OFFSET 0.009532 -1.634378 6.460591
            CHANNELS 3 Zrotation Yrotation Xrotation
            End Site
            {
              OFFSET 0.0 1.0 0.0
            }
          }
        }
      }
    }
  }
}
MOTION
Frames: 4
Frame Time: 0.033333
-3.536435 102.460442 2.338230 -178.566680 -24.565974 173.154871 -1.715955 0.121303 -2.803128 1.948131 0.094580 -10.559168 0.531944 -0.002175 10.287993 0.455349 1.075278 8.711161 -3.337888 0.437734 14.697849 -0.148065 9.214680 -3.067056 0.000238 -0.000402 -0.001519 -0.496005 0.283384 -2.053967 0.212383 -1.705939 -0.568717 -0.198582 0.045698 -0.585645 -4.670235 -11.394776 18.447373 -86.045719 -51.009385 9.553984 -170.024768 -52.091241 174.846203 34.125109 4.203180 -15.180185 4.379815 0.521800 12.322555 -8.631451 -13.314205 0.352134 -1.976122 -5.117474 -14.415966 -0.000435 -0.000045 -0.000011 2.108370 -1.429138 3.119887 -5.303120 -0.006624 8.416472 -6.140892 2.868822 -1.307269 -0.389138 -2.849417 4.772103 -0.000318 0.000339 -0.000241 1.673787 -2.135555 3.113617 -7.977020 8.423843 6.533844 -7.289962 2.516041 -0.547840 2.641131 -1.040621 6.539881 0.000739 -0.000491 0.000403 4.029153 -1.475685 -13.850469 -9.603148 11.226160 20.980106 -11.065130 3.575659 -0.004794 -14.709189 1.860610 -1.498789 0.000446 -0.000530 -0.000437 6.091810 -0.920265 -11.127940 -13.230340 11.673753 16.881857 -12.792771 3.450818 0.244493 -5.130482 3.548739 -0.947588 -0.000461 0.000183 -0.000144 6.261371 11.829806 17.519223 78.994856 52.378647 4.952824 174.146055 49.326805 -177.619209 -29.793815 -1.175340 -22.953392 3.565004 -1.006207 11.770324 7.265991 14.006952 -3.015332 0.927757 1.747114 -4.054929 -0.000579 0.001360 0.000027 2.689459 1.402306 1.287696 5.815592 -2.396162 10.058821 3.736497 0.890581 -0.589064 0.958490 3.423156 -7.571696 -0.000169 -0.000057 0.000436 2.834129 2.947021 2.488193 7.084263 -7.484968 7.291388 8.564040 2.168580 -0.806610 -1.524058 1.982920 3.242122 0.000486 0.000281 -0.000190 -0.291851 2.544029 -14.391968 10.104246 -8.955804 21.586477 11.072002 0.325941 -0.680726 15.529597 0.754763 -5.882482 0.001545 -0.000036 -0.001294 -2.481700 2.569079 -11.747965 14.941448 -8.056517 16.205820 12.956196 0.226910 -0.341584 6.451527 -2.205831 -2.727180 -0.002052 0.000030 -0.000480 3.407987 9.409672 15.213178 -1.243081 0.319613 0.965106 -1.763817 13.679236 -7.595899 -0.623470 -2.734011 0.242772 0.001001 -0.000613 1.000500 -3.022547 -9.417781 9.668117 1.320637 0.592502 4.095532 5.625979 -2.578454 -4.098671 -1.474948 2.138460 0.297760 -0.001349 0.000188 1.003027
-3.532632 102.472916 2.320041 -178.684637 -24.270502 172.839138 -1.853406 0.272952 -2.827742 1.944526 0.132770 -10.732735 0.704287 -0.164943 10.576540 0.273293 1.181715 8.971926 -3.270008 0.512266 15.112191 -0.126313 9.077337 -3.197528 0.000233 -0.000246 -0.001601 -0.479804 0.317193 -2.122219 0.222811 -1.639228 -0.853638 -0.197009 0.115323 -0.873810 -5.556402 -11.773134 18.267893 -86.606440 -51.960139 9.289348 -170.522789 -51.456518 175.814993 34.480149 4.763752 -15.887334 4.258621 1.300153 13.045730 -8.667355 -13.329455 0.148833 -2.048342 -4.662091 -13.920868 -0.000298 -0.000096 0.000024 2.074488 -1.576029 3.350808 -5.630598 0.296723 8.401061 -6.042506 2.855632 -1.293423 -0.574546 -2.712902 4.921035 -0.000376 0.000267 -0.000208 1.888163 -2.483194 3.251416 -8.385744 8.640792 6.596791 -7.286916 2.552297 -0.571108 2.649944 -0.947963 6.426131 0.000616 -0.000321 0.000242 4.333296 -2.010479 -13.672989 -9.746880 11.387220 21.216045 -11.200742 3.792277 -0.053357 -15.122455 1.826874 -1.914252 0.000261 -0.000482 -0.000348 6.412720 -1.525468 -11.068736 -13.228283 11.811668 17.067433 -13.138669 3.687560 0.238049 -5.599674 3.610201 -1.215608 -0.000413 0.000148 -0.000067 6.539910 12.482348 17.140401 79.796503 53.399962 3.502218 174.293587 48.378713 -176.517249 -30.152581 -2.640389 -25.825662 3.109865 -1.657408 12.069625 7.166029 13.988288 -3.384314 1.136905 1.454007 -3.903982 -0.000596 0.001486 0.000064 2.240076 1.363188 1.024683 5.812937 -2.328657 9.829405 3.461410 0.972472 -0.662199 0.915413 3.495950 -6.742829 -0.000132 -0.000057 0.000409 2.747824 2.985887 2.385491 6.832712 -7.395833 7.029950 8.163298 2.258553 -0.971601 -1.851169 1.914392 3.030264 0.000558 0.000105 -0.000050 -0.306180 2.837036 -14.626984 9.774452 -8.872055 21.549700 10.629503 0.279967 -0.817767 15.562035 0.839120 -6.129389 0.001899 -0.000501 -0.001423 -2.270977 3.066690 -12.247435 14.556286 -8.063732 16.142980 12.578705 0.014793 -0.368527 6.300976 -2.304800 -3.034538 -0.001617 -0.000439 -0.000470 3.399771 9.377867 15.455566 -1.229175 0.371896 1.007316 -2.081523 13.251315 -7.556847 -0.592865 -2.938376 0.561662 0.001035 -0.000551 1.000468 -3.106326 -9.468861 9.815358 1.369609 0.877771 4.189246 5.589602 -3.059619 -4.130637 -1.633693 2.231550 -0.009957 -0.001375 0.000045 1.003582
-3.528825 102.472389 2.301853 -178.940362 -24.062144 172.631609 -1.883807 0.395276 -2.937011 1.915453 0.069594 -10.682314 0.635391 -0.322756 10.725462 0.373899 1.203120 9.083461 -3.313556 0.615118 15.414069 0.057482 9.038865 -3.302711 0.000276 -0.000156 -0.001605 -0.442342 0.321495 -2.122062 0.216393 -1.629197 -0.789562 -0.201526 0.127188 -0.810232 -5.336575 -11.717142 18.259665 -86.381246 -52.955334 10.142130 -170.280203 -51.079949 174.873502 34.179366 3.811461 -13.531955 3.746027 1.642504 13.472370 -8.687740 -13.210693 0.094151 -2.028400 -4.493850 -13.620981 -0.000219 -0.000116 0.000087 1.931648 -1.760470 3.442577 -5.888258 0.490166 8.509402 -6.073052 2.904412 -1.330798 -0.678598 -2.689694 4.878109 -0.000401 0.000203 -0.000190 2.000531 -2.648080 3.321986 -8.604894 8.714576 6.725916 -7.430314 2.493141 -0.528457 2.596823 -0.924419 6.308682 0.000551 -0.000203 0.000149 4.539574 -2.121423 -13.463649 -9.863291 11.396002 21.398711 -11.347866 3.805562 -0.017219 -15.293486 1.784530 -2.086046 0.000143 -0.000432 -0.000329 6.644348 -1.555756 -10.660187 -13.309675 11.781518 17.126492 -13.257334 3.672854 0.285163 -5.816631 3.563911 -1.275021 -0.000414 0.000172 -0.000049 6.454751 12.329472 17.049115 80.459956 53.902830 4.592474 174.065280 48.471029 -176.965119 -29.534255 -3.140605 -26.588415 2.735118 -1.759627 11.999727 7.110276 14.119097 -3.602053 1.210077 1.603297 -3.944514 -0.000540 0.001507 0.000052 1.905935 1.266544 0.679800 5.542200 -2.123461 9.600549 3.038186 0.972286 -0.795756 0.683392 3.518614 -6.348399 -0.000090 -0.000106 0.000358 2.737632 2.809079 2.082111 6.432326 -7.276102 6.844696 7.501662 2.272073 -1.128415 -2.322166 1.926024 3.046539 0.000543 0.000038 0.000015 -0.127030 2.754566 -14.788901 9.341875 -8.692414 21.403301 9.990526 0.348759 -0.909398 15.186898 0.915471 -6.151779 0.002043 -0.000618 -0.001449 -1.823655 2.998777 -12.569407 14.079099 -7.907212 16.051771 11.925673 -0.091700 -0.410787 5.812333 -2.322793 -2.945104 -0.001510 -0.000575 -0.000444 3.350527 9.504589 15.506871 -1.262247 0.502419 1.312684 -2.357860 13.306339 -7.551591 -0.489132 -2.975290 0.562403 0.001077 -0.000533 1.000443 -3.252918 -9.571901 9.845968 1.310416 0.813896 4.414633 5.469232 -3.265794 -4.110594 -1.592403 2.251450 -0.009678 -0.001387 -0.000028 1.003732
-3.525011 102.506050 2.283667 -179.180281 -23.965405 172.272186 -1.611178 0.345453 -3.151807 1.781587 -0.016575 -10.289549 0.353252 -0.502508 10.443228 0.525327 1.183665 9.051902 -3.782015 0.910258 15.130514 0.147250 9.048032 -3.161334 0.000356 -0.000204 -0.001491 -0.390807 0.301859 -1.991487 0.212570 -1.631543 -0.426114 -0.194096 0.123640 -0.444411 -4.168858 -11.589220 18.716646 -85.796246 -53.628537 12.795283 -169.550980 -51.731579 173.073721 32.501453 3.179570 -10.639083 3.163588 2.556532 13.683202 -8.338934 -12.683825 -0.470552 -1.843497 -3.374306 -12.551066 -0.000280 -0.000093 0.000190 2.056513 -1.729492 3.271192 -8.805965 1.111001 8.709519 -7.258838 2.540307 -1.276255 -1.364931 -2.740976 4.675836 -0.000397 0.000241 -0.000230 2.105362 -2.519131 3.419873 -10.945066 8.880954 6.543550 -8.970884 1.933572 -0.422257 1.931934 -0.965297 5.739753 0.000606 -0.000219 0.000207 4.721281 -1.804708 -13.113346 -11.631856 11.610875 21.200393 -12.821838 3.444598 -0.045360 -16.312298 1.569002 -2.649317 0.000198 -0.000399 -0.000423 6.595637 -1.180733 -9.868764 -14.909784 11.699575 16.840863 -14.590202 3.099878 0.320775 -6.843151 3.379333 -1.898542 -0.000498 0.000244 -0.000085 6.073728 11.941206 17.787897 81.382221 53.554670 9.090216 173.027137 49.938025 -179.404533 -27.863103 -3.162058 -25.043837 2.741937 -2.451056 12.195606 6.538823 13.673345 -4.308544 1.118144 0.899785 -3.598201 -0.000375 0.001340 -0.000034 1.314263 1.083835 0.503478 7.110508 -2.354831 9.495088 3.815686 1.002044 -0.759960 0.945640 3.696529 -5.329725 -0.000048 -0.000178 0.000282 2.381142 2.548046 2.028140 8.067763 -7.537780 6.770103 8.049773 2.262677 -1.063330 -2.250413 2.096139 2.894128 0.000442 0.000171 -0.000067 -0.301390 2.401652 -14.469125 10.572567 -8.824964 21.197863 10.866714 0.356254 -0.886392 15.620187 1.122984 -6.470500 0.001846 -0.000095 -0.001318 -1.560339 2.603986 -12.199667 14.961489 -7.768934 16.024488 12.896883 -0.075102 -0.455637 6.275592 -2.268712 -3.520554 -0.001918 -0.000105 -0.000404 3.400602 9.827026 15.453792 -1.249988 0.858827 2.108043 -2.261173 13.573717 -7.291080 -0.401304 -2.636936 0.165989 0.001057 -0.000603 1.000412 -3.273895 -9.476654 9.755392 1.067413 0.390826 5.162302 5.504118 -3.194094 -3.974911 -1.342224 2.258651 0.356875 -0.001359 0.000023 1.003165
